<svg width="120" height="14" viewBox="0 0 120 14" fill="none" xmlns="http://www.w3.org/2000/svg">
  <path d="M14.1927 8.81746C15.2507 8.47384 15.8294 7.33649 15.4858 6.27851C15.1422 5.22053 14.0048 4.64181 12.9469 4.98543C11.8889 5.32904 11.3102 6.4664 11.6538 7.52437C11.9974 8.58235 13.1347 9.16107 14.1927 8.81746Z" fill="currentColor"/>
  <path d="M25.3443 0.0813829C25.3041 0.05526 25.2649 0.0281324 25.2288 0H1.84374L14.4651 2.80319C17.5838 3.49545 18.7844 7.30236 16.6283 9.65945L15.7281 10.6441L27.1388 5.92287C26.989 3.87121 26.3782 1.8698 25.3443 0.0813829Z" fill="currentColor"/>
  <path d="M10.5105 4.14244L11.4107 3.15781L0 7.87902C0.149704 9.93067 0.760579 11.9321 1.79444 13.7205C1.83463 13.7476 1.87382 13.7748 1.90999 13.8029H25.295L12.6736 10.9997C9.55496 10.3074 8.35431 6.50054 10.5105 4.14345V4.14244Z" fill="currentColor"/>
  <path d="M78.1918 4.31806H82.4475V11.924H86.0772V4.31806H90.3172V1.8623H78.1918V4.31806Z" fill="currentColor"/>
  <path d="M70.1329 1.86245L66.3136 11.9251H70.2873L74.6049 9.00179H71.2654L72.9195 4.03053L74.6049 9.00179L75.6367 11.9251H79.6153L75.8966 1.86245H70.1329Z" fill="currentColor"/>
  <path d="M51.8737 1.8779H48.2605V11.9406H51.8737V1.8779Z" fill="currentColor"/>
  <path d="M113.614 1.8779H104.985V11.9406H113.614C115.603 11.9406 117.215 10.3285 117.215 8.33917V5.4803C117.215 3.49102 115.603 1.87888 113.614 1.87888V1.8779ZM113.619 8.33331C113.619 9.08466 113.01 9.69337 112.26 9.69337H108.614V4.12513H112.26C113.01 4.12513 113.619 4.73383 113.619 5.48519V8.33428V8.33331Z" fill="currentColor"/>
  <path d="M59.4636 6.27483L57.019 1.86245H52.9955L55.7341 6.97343L53.0101 11.9251H57.0688L59.4636 7.67007L61.8573 11.9251H65.917L63.192 6.97343L65.9307 1.86245H61.9072L59.4636 6.27483Z" fill="currentColor"/>
  <path d="M35.1287 11.924H38.7741V8.0419H46.4854V5.74441H38.7741V4.10952H46.7987V1.8623H35.1287V11.924Z" fill="currentColor"/>
  <path d="M95.3799 4.10952H103.532V1.8623H91.7326V5.58781H91.7277V8.1985H91.7326V11.924H103.532V9.67776H95.3799V8.0419H103.226V5.74441L99.4596 5.66597L95.3799 5.74441V4.10952Z" fill="currentColor"/>
  <path d="M117.731 2.1041H117.334V1.8623H118.386V2.1041H117.994V3.14747H117.729V2.1041H117.731ZM118.556 1.8623H118.893L119.278 2.88473L119.667 1.8623H120V3.14747H119.747V2.25451L119.421 3.14747H119.135L118.809 2.26784V3.14747H118.556V1.8623Z" fill="currentColor"/>
</svg>
